<svg xmlns="http://www.w3.org/2000/svg" width="375" viewBox="0 0 375 375" height="375" version="1.0"><path fill="#7ED957" d="M 113.859375 96.515625 C 114.519531 96.515625 115.175781 96.546875 115.832031 96.613281 C 116.484375 96.675781 117.136719 96.773438 117.78125 96.902344 C 118.429688 97.03125 119.066406 97.1875 119.695312 97.378906 C 120.328125 97.570312 120.945312 97.792969 121.554688 98.046875 C 122.164062 98.296875 122.757812 98.578125 123.339844 98.890625 C 123.917969 99.199219 124.484375 99.539062 125.03125 99.902344 C 125.578125 100.269531 126.109375 100.660156 126.617188 101.078125 C 127.125 101.496094 127.613281 101.9375 128.078125 102.40625 C 128.542969 102.871094 128.988281 103.359375 129.40625 103.867188 C 129.820312 104.375 130.214844 104.902344 130.578125 105.453125 C 130.945312 106 131.285156 106.5625 131.59375 107.144531 C 131.90625 107.726562 132.1875 108.320312 132.4375 108.929688 C 132.691406 109.535156 132.910156 110.15625 133.101562 110.785156 C 133.292969 111.417969 133.453125 112.054688 133.582031 112.699219 C 133.710938 113.347656 133.808594 113.996094 133.871094 114.652344 C 133.9375 115.308594 133.96875 115.964844 133.96875 116.625 C 133.96875 117.28125 133.9375 117.941406 133.871094 118.59375 C 133.808594 119.25 133.710938 119.902344 133.582031 120.546875 C 133.453125 121.191406 133.292969 121.832031 133.101562 122.460938 C 132.910156 123.089844 132.691406 123.710938 132.4375 124.320312 C 132.1875 124.929688 131.90625 125.523438 131.59375 126.105469 C 131.285156 126.683594 130.945312 127.25 130.578125 127.796875 C 130.214844 128.34375 129.820312 128.871094 129.40625 129.382812 C 128.988281 129.890625 128.542969 130.378906 128.078125 130.84375 C 127.613281 131.308594 127.125 131.75 126.617188 132.167969 C 126.109375 132.585938 125.578125 132.980469 125.03125 133.34375 C 124.484375 133.710938 123.917969 134.046875 123.339844 134.359375 C 122.757812 134.667969 122.164062 134.949219 121.554688 135.203125 C 120.945312 135.453125 120.328125 135.675781 119.695312 135.867188 C 119.066406 136.058594 118.429688 136.21875 117.78125 136.347656 C 117.136719 136.476562 116.484375 136.570312 115.832031 136.636719 C 115.175781 136.703125 114.519531 136.734375 113.859375 136.734375 C 113.199219 136.734375 112.542969 136.703125 111.886719 136.636719 C 111.234375 136.570312 110.582031 136.476562 109.9375 136.347656 C 109.289062 136.21875 108.652344 136.058594 108.023438 135.867188 C 107.390625 135.675781 106.773438 135.453125 106.164062 135.203125 C 105.554688 134.949219 104.960938 134.667969 104.378906 134.359375 C 103.800781 134.046875 103.234375 133.710938 102.6875 133.34375 C 102.140625 132.980469 101.609375 132.585938 101.101562 132.167969 C 100.59375 131.75 100.105469 131.308594 99.640625 130.84375 C 99.175781 130.378906 98.734375 129.890625 98.316406 129.382812 C 97.898438 128.871094 97.503906 128.34375 97.140625 127.796875 C 96.773438 127.25 96.433594 126.683594 96.125 126.105469 C 95.8125 125.523438 95.53125 124.929688 95.28125 124.320312 C 95.027344 123.710938 94.808594 123.089844 94.617188 122.460938 C 94.425781 121.832031 94.265625 121.191406 94.136719 120.546875 C 94.007812 119.902344 93.910156 119.25 93.847656 118.59375 C 93.78125 117.941406 93.75 117.28125 93.75 116.625 C 93.75 115.964844 93.78125 115.308594 93.847656 114.652344 C 93.910156 113.996094 94.007812 113.347656 94.136719 112.699219 C 94.265625 112.054688 94.425781 111.417969 94.617188 110.785156 C 94.808594 110.15625 95.027344 109.535156 95.28125 108.929688 C 95.53125 108.320312 95.8125 107.726562 96.125 107.144531 C 96.433594 106.5625 96.773438 106 97.140625 105.453125 C 97.503906 104.902344 97.898438 104.375 98.316406 103.867188 C 98.734375 103.359375 99.175781 102.871094 99.640625 102.40625 C 100.105469 101.9375 100.59375 101.496094 101.101562 101.078125 C 101.609375 100.660156 102.140625 100.269531 102.6875 99.902344 C 103.234375 99.539062 103.800781 99.199219 104.378906 98.890625 C 104.960938 98.578125 105.554688 98.296875 106.164062 98.046875 C 106.773438 97.792969 107.390625 97.570312 108.023438 97.378906 C 108.652344 97.1875 109.289062 97.03125 109.9375 96.902344 C 110.582031 96.773438 111.234375 96.675781 111.886719 96.613281 C 112.542969 96.546875 113.199219 96.515625 113.859375 96.515625 L 113.859375 104.558594 C 113.066406 104.558594 112.28125 104.636719 111.503906 104.789062 C 110.730469 104.945312 109.972656 105.171875 109.242188 105.476562 C 108.511719 105.78125 107.816406 106.152344 107.15625 106.589844 C 106.496094 107.03125 105.886719 107.53125 105.328125 108.09375 C 104.765625 108.652344 104.265625 109.261719 103.828125 109.921875 C 103.386719 110.578125 103.015625 111.273438 102.710938 112.007812 C 102.410156 112.738281 102.179688 113.492188 102.027344 114.269531 C 101.871094 115.046875 101.792969 115.832031 101.792969 116.625 C 101.792969 117.417969 101.871094 118.199219 102.027344 118.976562 C 102.179688 119.753906 102.410156 120.507812 102.710938 121.242188 C 103.015625 121.972656 103.386719 122.667969 103.828125 123.328125 C 104.265625 123.984375 104.765625 124.59375 105.328125 125.15625 C 105.886719 125.714844 106.496094 126.214844 107.15625 126.65625 C 107.816406 127.097656 108.511719 127.46875 109.242188 127.769531 C 109.972656 128.074219 110.730469 128.304688 111.503906 128.457031 C 112.28125 128.613281 113.066406 128.691406 113.859375 128.691406 C 114.652344 128.691406 115.4375 128.613281 116.214844 128.457031 C 116.992188 128.304688 117.746094 128.074219 118.476562 127.769531 C 119.207031 127.46875 119.902344 127.097656 120.5625 126.65625 C 121.222656 126.214844 121.832031 125.714844 122.390625 125.15625 C 122.953125 124.59375 123.453125 123.984375 123.890625 123.328125 C 124.332031 122.667969 124.703125 121.972656 125.007812 121.242188 C 125.308594 120.507812 125.539062 119.753906 125.695312 118.976562 C 125.847656 118.199219 125.925781 117.417969 125.925781 116.625 C 125.925781 115.832031 125.847656 115.046875 125.695312 114.269531 C 125.539062 113.492188 125.308594 112.738281 125.007812 112.007812 C 124.703125 111.273438 124.332031 110.578125 123.890625 109.921875 C 123.453125 109.261719 122.953125 108.652344 122.390625 108.09375 C 121.832031 107.53125 121.222656 107.03125 120.5625 106.589844 C 119.902344 106.152344 119.207031 105.78125 118.476562 105.476562 C 117.746094 105.171875 116.992188 104.945312 116.214844 104.789062 C 115.4375 104.636719 114.652344 104.558594 113.859375 104.558594 Z M 113.859375 96.515625"/><path fill="#6CE5E8" d="M 118.886719 97.152344 C 120.078125 97.460938 121.234375 97.875 122.347656 98.394531 C 123.464844 98.914062 124.523438 99.53125 125.527344 100.246094 C 126.53125 100.960938 127.460938 101.757812 128.316406 102.644531 C 129.171875 103.527344 129.9375 104.484375 130.621094 105.511719 C 131.300781 106.535156 131.878906 107.617188 132.363281 108.75 C 132.84375 109.882812 133.21875 111.050781 133.488281 112.25 C 133.753906 113.453125 133.910156 114.667969 133.957031 115.898438 C 134 117.128906 133.933594 118.351562 133.753906 119.570312 C 133.570312 120.789062 133.28125 121.980469 132.882812 123.144531 C 132.484375 124.308594 131.980469 125.425781 131.378906 126.5 C 130.773438 127.570312 130.074219 128.582031 129.285156 129.523438 C 128.496094 130.46875 127.625 131.332031 126.679688 132.117188 C 125.730469 132.902344 124.71875 133.59375 123.640625 134.195312 C 122.566406 134.792969 121.445312 135.289062 120.277344 135.683594 C 119.109375 136.074219 117.917969 136.359375 116.699219 136.53125 C 115.480469 136.707031 114.257812 136.765625 113.027344 136.714844 C 111.796875 136.664062 110.582031 136.503906 109.382812 136.230469 C 108.179688 135.953125 107.015625 135.574219 105.886719 135.085938 C 104.753906 134.597656 103.679688 134.011719 102.65625 133.324219 C 101.632812 132.636719 100.683594 131.863281 99.800781 131.003906 C 98.921875 130.144531 98.128906 129.210938 97.417969 128.203125 C 96.710938 127.199219 96.097656 126.132812 95.585938 125.015625 C 95.070312 123.898438 94.664062 122.742188 94.363281 121.546875 C 94.0625 120.355469 93.871094 119.140625 93.792969 117.914062 C 93.773438 117.648438 93.785156 117.386719 93.816406 117.125 C 93.851562 116.863281 93.914062 116.609375 94 116.359375 C 94.082031 116.109375 94.191406 115.867188 94.324219 115.640625 C 94.457031 115.410156 94.609375 115.199219 94.785156 115 C 94.957031 114.800781 95.152344 114.621094 95.359375 114.460938 C 95.570312 114.300781 95.792969 114.164062 96.03125 114.046875 C 96.269531 113.929688 96.515625 113.835938 96.769531 113.769531 C 97.023438 113.703125 97.285156 113.660156 97.546875 113.640625 C 97.8125 113.625 98.074219 113.632812 98.335938 113.667969 C 98.597656 113.703125 98.851562 113.765625 99.101562 113.847656 C 99.351562 113.933594 99.59375 114.042969 99.820312 114.175781 C 100.050781 114.308594 100.261719 114.460938 100.460938 114.636719 C 100.660156 114.808594 100.839844 115 101 115.210938 C 101.160156 115.421875 101.296875 115.644531 101.414062 115.882812 C 101.53125 116.117188 101.625 116.363281 101.691406 116.621094 C 101.757812 116.875 101.800781 117.132812 101.820312 117.398438 C 101.867188 118.136719 101.980469 118.863281 102.160156 119.578125 C 102.34375 120.292969 102.585938 120.988281 102.894531 121.660156 C 103.203125 122.332031 103.570312 122.96875 103.996094 123.570312 C 104.421875 124.175781 104.898438 124.734375 105.425781 125.253906 C 105.953125 125.769531 106.523438 126.234375 107.136719 126.644531 C 107.75 127.054688 108.398438 127.40625 109.074219 127.699219 C 109.753906 127.992188 110.453125 128.222656 111.171875 128.386719 C 111.894531 128.550781 112.621094 128.648438 113.359375 128.679688 C 114.097656 128.710938 114.832031 128.671875 115.5625 128.570312 C 116.292969 128.464844 117.011719 128.292969 117.710938 128.058594 C 118.410156 127.824219 119.082031 127.523438 119.730469 127.167969 C 120.375 126.808594 120.980469 126.390625 121.550781 125.921875 C 122.121094 125.449219 122.640625 124.929688 123.113281 124.363281 C 123.589844 123.796875 124.007812 123.191406 124.371094 122.550781 C 124.734375 121.90625 125.035156 121.234375 125.273438 120.535156 C 125.511719 119.835938 125.6875 119.121094 125.796875 118.390625 C 125.902344 117.660156 125.945312 116.925781 125.917969 116.1875 C 125.890625 115.449219 125.796875 114.722656 125.636719 114 C 125.476562 113.277344 125.25 112.578125 124.960938 111.898438 C 124.671875 111.21875 124.324219 110.570312 123.914062 109.957031 C 123.507812 109.339844 123.046875 108.765625 122.53125 108.234375 C 122.019531 107.707031 121.460938 107.226562 120.859375 106.796875 C 120.257812 106.367188 119.621094 105.996094 118.953125 105.6875 C 118.285156 105.375 117.589844 105.125 116.875 104.941406 C 116.621094 104.875 116.375 104.785156 116.136719 104.671875 C 115.898438 104.554688 115.671875 104.417969 115.460938 104.261719 C 115.25 104.101562 115.058594 103.921875 114.882812 103.726562 C 114.707031 103.53125 114.550781 103.316406 114.417969 103.089844 C 114.28125 102.863281 114.171875 102.625 114.085938 102.375 C 113.996094 102.125 113.9375 101.871094 113.898438 101.609375 C 113.863281 101.347656 113.851562 101.085938 113.867188 100.820312 C 113.878906 100.558594 113.921875 100.296875 113.988281 100.042969 C 114.054688 99.785156 114.144531 99.539062 114.257812 99.300781 C 114.371094 99.0625 114.507812 98.839844 114.667969 98.628906 C 114.828125 98.417969 115.003906 98.222656 115.203125 98.046875 C 115.398438 97.871094 115.609375 97.714844 115.839844 97.582031 C 116.066406 97.449219 116.304688 97.339844 116.554688 97.25 C 116.804688 97.164062 117.058594 97.101562 117.320312 97.066406 C 117.582031 97.027344 117.84375 97.015625 118.109375 97.03125 C 118.371094 97.046875 118.632812 97.085938 118.886719 97.152344 Z M 118.886719 97.152344"/><g><g><g><path d="M 10.371094 0.203125 C 12.726562 0.203125 14.839844 -0.742188 16.34375 -2.375 C 17.847656 -4.007812 18.71875 -6.160156 18.71875 -8.550781 L 18.71875 -15.804688 C 18.71875 -16.34375 18.496094 -16.882812 18.144531 -17.253906 C 17.734375 -17.660156 17.253906 -17.867188 16.695312 -17.867188 C 16.160156 -17.867188 15.65625 -17.660156 15.230469 -17.253906 C 14.839844 -16.882812 14.601562 -16.34375 14.601562 -15.804688 L 14.601562 -8.550781 C 14.601562 -7.234375 14.191406 -6.085938 13.449219 -5.269531 C 12.691406 -4.398438 11.632812 -3.914062 10.371094 -3.914062 C 9.089844 -3.914062 7.941406 -4.414062 7.105469 -5.25 C 6.269531 -6.085938 5.769531 -7.234375 5.769531 -8.515625 L 5.769531 -15.804688 C 5.769531 -16.363281 5.566406 -16.84375 5.15625 -17.253906 C 4.769531 -17.644531 4.265625 -17.847656 3.691406 -17.847656 C 3.117188 -17.847656 2.632812 -17.644531 2.246094 -17.253906 C 1.855469 -16.863281 1.652344 -16.382812 1.652344 -15.804688 L 1.652344 -8.550781 C 1.652344 -6.179688 2.578125 -4.007812 4.191406 -2.375 C 5.808594 -0.742188 7.996094 0.203125 10.371094 0.203125 Z M 10.371094 0.203125" transform="translate(134.986 133.9)"/></g></g></g><g><g><g><path d="M 3.765625 0 C 4.304688 0 4.824219 -0.222656 5.195312 -0.59375 C 5.585938 -1 5.769531 -1.484375 5.769531 -2.039062 L 5.769531 -8.535156 C 5.789062 -9.960938 6.402344 -11.261719 7.382812 -12.246094 C 8.367188 -13.210938 9.683594 -13.785156 11.074219 -13.804688 L 11.167969 -13.804688 C 11.761719 -13.804688 12.261719 -14.007812 12.691406 -14.398438 C 13.0625 -14.769531 13.300781 -15.285156 13.300781 -15.863281 C 13.300781 -17.066406 12.503906 -17.902344 11.167969 -17.902344 L 11.132812 -17.902344 C 8.589844 -17.902344 6.214844 -16.882812 4.453125 -15.121094 C 2.691406 -13.359375 1.652344 -10.945312 1.652344 -8.402344 L 1.652344 -2.039062 C 1.652344 -1.464844 1.855469 -0.984375 2.28125 -0.59375 C 2.707031 -0.203125 3.191406 0 3.765625 0 Z M 3.765625 0" transform="translate(155.355 133.9)"/></g></g></g><path fill="#7ED957" d="M 121.875 146.925781 L 121.875 183.484375 C 121.875 183.75 121.851562 184.011719 121.800781 184.269531 C 121.746094 184.527344 121.671875 184.777344 121.570312 185.023438 C 121.46875 185.265625 121.347656 185.496094 121.199219 185.714844 C 121.054688 185.933594 120.886719 186.136719 120.699219 186.324219 C 120.515625 186.511719 120.3125 186.675781 120.09375 186.824219 C 119.875 186.96875 119.644531 187.09375 119.398438 187.191406 C 119.15625 187.292969 118.90625 187.371094 118.644531 187.421875 C 118.386719 187.472656 118.128906 187.5 117.863281 187.5 C 117.601562 187.5 117.339844 187.472656 117.082031 187.421875 C 116.824219 187.371094 116.570312 187.292969 116.328125 187.191406 C 116.085938 187.09375 115.851562 186.96875 115.632812 186.824219 C 115.414062 186.675781 115.210938 186.511719 115.027344 186.324219 C 114.839844 186.136719 114.671875 185.933594 114.527344 185.714844 C 114.378906 185.496094 114.257812 185.265625 114.15625 185.023438 C 114.054688 184.777344 113.980469 184.527344 113.929688 184.269531 C 113.875 184.011719 113.851562 183.75 113.851562 183.484375 L 113.851562 146.925781 C 113.851562 146.664062 113.875 146.402344 113.929688 146.144531 C 113.980469 145.882812 114.054688 145.632812 114.15625 145.390625 C 114.257812 145.148438 114.378906 144.914062 114.527344 144.695312 C 114.671875 144.476562 114.839844 144.273438 115.027344 144.089844 C 115.210938 143.902344 115.414062 143.734375 115.632812 143.589844 C 115.851562 143.441406 116.085938 143.320312 116.328125 143.21875 C 116.570312 143.117188 116.824219 143.042969 117.082031 142.992188 C 117.339844 142.9375 117.601562 142.914062 117.863281 142.914062 C 118.128906 142.914062 118.386719 142.9375 118.644531 142.992188 C 118.90625 143.042969 119.15625 143.117188 119.398438 143.21875 C 119.644531 143.320312 119.875 143.441406 120.09375 143.589844 C 120.3125 143.734375 120.515625 143.902344 120.699219 144.089844 C 120.886719 144.273438 121.054688 144.476562 121.199219 144.695312 C 121.347656 144.914062 121.46875 145.148438 121.570312 145.390625 C 121.671875 145.632812 121.746094 145.882812 121.800781 146.144531 C 121.851562 146.402344 121.875 146.664062 121.875 146.925781 Z M 121.875 146.925781"/><path fill="#6CE5E8" d="M 121.875 146.925781 L 121.875 153.613281 C 121.875 153.878906 121.851562 154.136719 121.800781 154.398438 C 121.746094 154.65625 121.671875 154.90625 121.570312 155.148438 C 121.46875 155.394531 121.347656 155.625 121.199219 155.84375 C 121.054688 156.0625 120.886719 156.265625 120.699219 156.453125 C 120.515625 156.636719 120.3125 156.804688 120.09375 156.949219 C 119.875 157.097656 119.644531 157.21875 119.398438 157.320312 C 119.15625 157.421875 118.90625 157.496094 118.644531 157.550781 C 118.386719 157.601562 118.128906 157.625 117.863281 157.625 C 117.601562 157.625 117.339844 157.601562 117.082031 157.550781 C 116.824219 157.496094 116.570312 157.421875 116.328125 157.320312 C 116.085938 157.21875 115.851562 157.097656 115.632812 156.949219 C 115.414062 156.804688 115.210938 156.636719 115.027344 156.453125 C 114.839844 156.265625 114.671875 156.0625 114.527344 155.84375 C 114.378906 155.625 114.257812 155.394531 114.15625 155.148438 C 114.054688 154.90625 113.980469 154.65625 113.929688 154.398438 C 113.875 154.136719 113.851562 153.878906 113.851562 153.613281 L 113.851562 146.925781 C 113.851562 146.664062 113.875 146.402344 113.929688 146.144531 C 113.980469 145.882812 114.054688 145.632812 114.15625 145.390625 C 114.257812 145.148438 114.378906 144.914062 114.527344 144.695312 C 114.671875 144.476562 114.839844 144.273438 115.027344 144.089844 C 115.210938 143.902344 115.414062 143.734375 115.632812 143.589844 C 115.851562 143.441406 116.085938 143.320312 116.328125 143.21875 C 116.570312 143.117188 116.824219 143.042969 117.082031 142.992188 C 117.339844 142.9375 117.601562 142.914062 117.863281 142.914062 C 118.128906 142.914062 118.386719 142.9375 118.644531 142.992188 C 118.90625 143.042969 119.15625 143.117188 119.398438 143.21875 C 119.644531 143.320312 119.875 143.441406 120.09375 143.589844 C 120.3125 143.734375 120.515625 143.902344 120.699219 144.089844 C 120.886719 144.273438 121.054688 144.476562 121.199219 144.695312 C 121.347656 144.914062 121.46875 145.148438 121.570312 145.390625 C 121.671875 145.632812 121.746094 145.882812 121.800781 146.144531 C 121.851562 146.402344 121.875 146.664062 121.875 146.925781 Z M 121.875 146.925781"/><path fill="#7ED957" d="M 116.453125 142.914062 L 140.074219 142.914062 C 140.417969 142.914062 140.746094 142.980469 141.0625 143.113281 C 141.382812 143.242188 141.664062 143.429688 141.90625 143.671875 C 142.148438 143.917969 142.335938 144.195312 142.46875 144.515625 C 142.597656 144.832031 142.664062 145.164062 142.664062 145.507812 C 142.664062 145.851562 142.597656 146.179688 142.46875 146.5 C 142.335938 146.816406 142.148438 147.097656 141.90625 147.339844 C 141.664062 147.582031 141.382812 147.769531 141.0625 147.902344 C 140.746094 148.035156 140.417969 148.097656 140.074219 148.097656 L 116.453125 148.097656 C 116.109375 148.097656 115.777344 148.035156 115.460938 147.902344 C 115.140625 147.769531 114.863281 147.582031 114.617188 147.339844 C 114.375 147.097656 114.1875 146.816406 114.058594 146.5 C 113.925781 146.179688 113.859375 145.851562 113.859375 145.507812 C 113.859375 145.164062 113.925781 144.832031 114.058594 144.515625 C 114.1875 144.195312 114.375 143.917969 114.617188 143.671875 C 114.863281 143.429688 115.140625 143.242188 115.460938 143.113281 C 115.777344 142.980469 116.109375 142.914062 116.453125 142.914062 Z M 116.453125 142.914062"/><path fill="#6CE5E8" d="M 116.453125 142.914062 L 130.566406 142.914062 C 130.910156 142.914062 131.242188 142.980469 131.558594 143.113281 C 131.875 143.242188 132.15625 143.429688 132.398438 143.671875 C 132.644531 143.917969 132.832031 144.195312 132.960938 144.515625 C 133.09375 144.832031 133.160156 145.164062 133.160156 145.507812 C 133.160156 145.851562 133.09375 146.179688 132.960938 146.5 C 132.832031 146.816406 132.644531 147.097656 132.398438 147.339844 C 132.15625 147.582031 131.875 147.769531 131.558594 147.902344 C 131.242188 148.035156 130.910156 148.097656 130.566406 148.097656 L 116.453125 148.097656 C 116.109375 148.097656 115.777344 148.035156 115.460938 147.902344 C 115.140625 147.769531 114.863281 147.582031 114.617188 147.339844 C 114.375 147.097656 114.1875 146.816406 114.058594 146.5 C 113.925781 146.179688 113.859375 145.851562 113.859375 145.507812 C 113.859375 145.164062 113.925781 144.832031 114.058594 144.515625 C 114.1875 144.195312 114.375 143.917969 114.617188 143.671875 C 114.863281 143.429688 115.140625 143.242188 115.460938 143.113281 C 115.777344 142.980469 116.109375 142.914062 116.453125 142.914062 Z M 116.453125 142.914062"/><path fill="#7ED957" d="M 134.984375 163.648438 L 116.390625 163.648438 C 116.121094 163.648438 115.859375 163.597656 115.609375 163.496094 C 115.359375 163.390625 115.140625 163.242188 114.949219 163.050781 C 114.757812 162.859375 114.609375 162.640625 114.503906 162.390625 C 114.402344 162.140625 114.351562 161.878906 114.351562 161.609375 C 114.351562 161.339844 114.402344 161.078125 114.503906 160.828125 C 114.609375 160.578125 114.757812 160.355469 114.949219 160.164062 C 115.140625 159.972656 115.359375 159.828125 115.609375 159.722656 C 115.859375 159.621094 116.121094 159.566406 116.390625 159.566406 L 134.984375 159.566406 C 135.253906 159.566406 135.515625 159.621094 135.765625 159.722656 C 136.015625 159.828125 136.238281 159.972656 136.429688 160.164062 C 136.621094 160.355469 136.765625 160.578125 136.871094 160.828125 C 136.972656 161.078125 137.027344 161.339844 137.027344 161.609375 C 137.027344 161.878906 136.972656 162.140625 136.871094 162.390625 C 136.765625 162.640625 136.621094 162.859375 136.429688 163.050781 C 136.238281 163.242188 136.015625 163.390625 135.765625 163.496094 C 135.515625 163.597656 135.253906 163.648438 134.984375 163.648438 Z M 134.984375 163.648438"/><path fill="#6CE5E8" d="M 134.984375 163.648438 L 123.875 163.648438 C 123.601562 163.648438 123.34375 163.597656 123.09375 163.496094 C 122.84375 163.390625 122.621094 163.242188 122.429688 163.050781 C 122.238281 162.859375 122.09375 162.640625 121.988281 162.390625 C 121.886719 162.140625 121.832031 161.878906 121.832031 161.609375 C 121.832031 161.339844 121.886719 161.078125 121.988281 160.828125 C 122.09375 160.578125 122.238281 160.355469 122.429688 160.164062 C 122.621094 159.972656 122.84375 159.828125 123.09375 159.722656 C 123.34375 159.621094 123.601562 159.566406 123.875 159.566406 L 134.984375 159.566406 C 135.253906 159.566406 135.515625 159.621094 135.765625 159.722656 C 136.015625 159.828125 136.238281 159.972656 136.429688 160.164062 C 136.621094 160.355469 136.765625 160.578125 136.871094 160.828125 C 136.972656 161.078125 137.027344 161.339844 137.027344 161.609375 C 137.027344 161.878906 136.972656 162.140625 136.871094 162.390625 C 136.765625 162.640625 136.621094 162.859375 136.429688 163.050781 C 136.238281 163.242188 136.015625 163.390625 135.765625 163.496094 C 135.515625 163.597656 135.253906 163.648438 134.984375 163.648438 Z M 134.984375 163.648438"/><g><g><g><path d="M 3.988281 -19.738281 C 4.582031 -19.738281 5.15625 -19.980469 5.585938 -20.40625 C 6.03125 -20.851562 6.253906 -21.390625 6.253906 -22.003906 C 6.253906 -22.597656 6.011719 -23.171875 5.585938 -23.597656 C 5.15625 -24.023438 4.601562 -24.246094 3.988281 -24.246094 C 3.359375 -24.246094 2.820312 -24.023438 2.394531 -23.597656 C 1.964844 -23.171875 1.726562 -22.597656 1.726562 -22.003906 C 1.726562 -21.390625 1.949219 -20.851562 2.394531 -20.40625 C 2.839844 -19.960938 3.375 -19.738281 3.988281 -19.738281 Z M 3.988281 0.167969 C 4.5625 0.167969 5.046875 -0.0351562 5.4375 -0.425781 C 5.824219 -0.816406 6.03125 -1.296875 6.03125 -1.875 L 6.03125 -15.84375 C 6.03125 -16.382812 5.808594 -16.917969 5.453125 -17.289062 C 5.046875 -17.699219 4.5625 -17.902344 4.007812 -17.902344 C 3.433594 -17.902344 2.894531 -17.660156 2.523438 -17.289062 C 2.132812 -16.917969 1.890625 -16.382812 1.890625 -15.84375 L 1.890625 -1.875 C 1.890625 -1.296875 2.097656 -0.816406 2.523438 -0.425781 C 2.914062 -0.0351562 3.414062 0.167969 3.988281 0.167969 Z M 3.988281 0.167969" transform="translate(136.528 187.169)"/></g></g></g><g><g><g><path d="M 3.300781 0 C 3.839844 0 4.359375 -0.222656 4.730469 -0.59375 C 5.121094 -0.984375 5.304688 -1.445312 5.304688 -2.023438 L 5.304688 -9.128906 C 5.304688 -10.390625 5.789062 -11.59375 6.605469 -12.429688 C 7.4375 -13.265625 8.570312 -13.765625 9.851562 -13.765625 C 11.09375 -13.765625 12.261719 -13.265625 13.136719 -12.394531 C 14.007812 -11.558594 14.527344 -10.371094 14.546875 -9.109375 L 14.546875 -2.023438 C 14.546875 -1.445312 14.75 -0.984375 15.175781 -0.59375 C 15.566406 -0.203125 16.066406 0 16.640625 0 C 17.214844 0 17.699219 -0.203125 18.089844 -0.59375 C 18.476562 -0.984375 18.664062 -1.445312 18.664062 -2.023438 L 18.664062 -9.128906 C 18.664062 -11.503906 17.71875 -13.710938 16.085938 -15.34375 C 14.472656 -16.957031 12.246094 -17.902344 9.851562 -17.902344 C 7.457031 -17.902344 5.289062 -16.976562 3.710938 -15.34375 C 2.097656 -13.710938 1.167969 -11.519531 1.167969 -9.128906 L 1.167969 -2.023438 C 1.167969 -1.464844 1.390625 -0.984375 1.816406 -0.59375 C 2.1875 -0.222656 2.726562 0 3.300781 0 Z M 3.300781 0" transform="translate(144.487 187.169)"/></g></g></g><g><g><g><path d="M 9.871094 0.203125 C 11.667969 0.203125 13.339844 -0.296875 14.839844 -1.296875 C 15.082031 -0.40625 15.824219 0.167969 16.789062 0.167969 C 17.382812 0.167969 17.882812 -0.0351562 18.273438 -0.464844 C 18.683594 -0.871094 18.886719 -1.371094 18.886719 -1.949219 L 18.886719 -8.832031 C 18.886719 -11.296875 17.902344 -13.5625 16.25 -15.25 C 14.5625 -16.9375 12.320312 -17.902344 9.871094 -17.902344 C 7.4375 -17.902344 5.15625 -16.902344 3.507812 -15.25 C 1.855469 -13.5625 0.851562 -11.28125 0.851562 -8.832031 C 0.851562 -6.382812 1.816406 -4.136719 3.507812 -2.449219 C 5.15625 -0.796875 7.4375 0.203125 9.871094 0.203125 Z M 9.871094 -3.914062 C 8.535156 -3.914062 7.308594 -4.453125 6.417969 -5.363281 C 5.511719 -6.269531 4.992188 -7.496094 4.992188 -8.832031 C 4.992188 -10.167969 5.511719 -11.390625 6.417969 -12.300781 C 7.328125 -13.210938 8.550781 -13.730469 9.871094 -13.730469 C 11.207031 -13.730469 12.46875 -13.191406 13.359375 -12.300781 C 14.25 -11.390625 14.769531 -10.167969 14.769531 -8.832031 C 14.769531 -7.496094 14.25 -6.269531 13.359375 -5.363281 C 12.449219 -4.453125 11.207031 -3.914062 9.871094 -3.914062 Z M 9.871094 -3.914062" transform="translate(164.856 187.169)"/></g></g></g><g><g><g><path d="M 3.300781 0 C 3.839844 0 4.359375 -0.222656 4.730469 -0.59375 C 5.121094 -0.984375 5.304688 -1.445312 5.304688 -2.023438 L 5.304688 -9.128906 C 5.304688 -10.390625 5.789062 -11.59375 6.605469 -12.429688 C 7.4375 -13.265625 8.570312 -13.765625 9.851562 -13.765625 C 11.09375 -13.765625 12.261719 -13.265625 13.136719 -12.394531 C 14.007812 -11.558594 14.527344 -10.371094 14.546875 -9.109375 L 14.546875 -2.023438 C 14.546875 -1.445312 14.75 -0.984375 15.175781 -0.59375 C 15.566406 -0.203125 16.066406 0 16.640625 0 C 17.214844 0 17.699219 -0.203125 18.089844 -0.59375 C 18.476562 -0.984375 18.664062 -1.445312 18.664062 -2.023438 L 18.664062 -9.128906 C 18.664062 -11.503906 17.71875 -13.710938 16.085938 -15.34375 C 14.472656 -16.957031 12.246094 -17.902344 9.851562 -17.902344 C 7.457031 -17.902344 5.289062 -16.976562 3.710938 -15.34375 C 2.097656 -13.710938 1.167969 -11.519531 1.167969 -9.128906 L 1.167969 -2.023438 C 1.167969 -1.464844 1.390625 -0.984375 1.816406 -0.59375 C 2.1875 -0.222656 2.726562 0 3.300781 0 Z M 3.300781 0" transform="translate(185.429 187.169)"/></g></g></g><g><g><g><path d="M 10.019531 0.203125 C 12.410156 0.203125 14.65625 -0.667969 16.214844 -2.226562 C 16.714844 -2.726562 16.957031 -3.339844 16.957031 -3.933594 C 16.957031 -4.507812 16.714844 -4.992188 16.25 -5.398438 C 15.863281 -5.75 15.324219 -5.957031 14.898438 -5.957031 C 14.621094 -5.957031 14.359375 -5.898438 14.101562 -5.789062 C 13.582031 -5.546875 12.929688 -5.027344 12.726562 -4.878906 C 11.761719 -4.191406 10.890625 -3.96875 9.777344 -3.96875 C 8.460938 -3.96875 7.253906 -4.546875 6.382812 -5.492188 C 5.546875 -6.402344 5.046875 -7.644531 5.046875 -8.847656 C 5.046875 -10.035156 5.546875 -11.242188 6.363281 -12.152344 C 7.199219 -13.0625 8.347656 -13.65625 9.628906 -13.710938 C 10.835938 -13.710938 11.742188 -13.488281 12.726562 -12.800781 C 13.191406 -12.449219 13.523438 -12.207031 13.710938 -12.097656 C 14.101562 -11.855469 14.488281 -11.726562 14.878906 -11.726562 C 15.269531 -11.726562 15.789062 -11.910156 16.214844 -12.261719 C 16.714844 -12.671875 16.957031 -13.171875 16.957031 -13.765625 C 16.957031 -14.398438 16.714844 -14.972656 16.214844 -15.472656 C 14.65625 -17.03125 12.410156 -17.902344 10.019531 -17.902344 C 7.496094 -17.902344 5.214844 -16.9375 3.507812 -15.25 C 1.800781 -13.5625 0.816406 -11.261719 0.816406 -8.757812 C 0.816406 -6.289062 1.816406 -4.042969 3.523438 -2.394531 C 5.214844 -0.742188 7.511719 0.203125 10.019531 0.203125 Z M 10.019531 0.203125" transform="translate(205.797 187.169)"/></g></g></g><g><g><g><path d="M 9.925781 0.203125 C 11.558594 0.203125 13.003906 -0.0546875 13.988281 -0.554688 C 14.972656 -1.058594 15.546875 -1.761719 15.546875 -2.578125 C 15.546875 -3.117188 15.324219 -3.671875 14.972656 -4.0625 C 14.5625 -4.488281 14.082031 -4.710938 13.523438 -4.710938 C 13.171875 -4.710938 12.765625 -4.582031 12.320312 -4.324219 C 11.652344 -3.933594 11.019531 -3.746094 9.925781 -3.746094 C 8.886719 -3.746094 7.957031 -4.042969 7.144531 -4.65625 C 6.308594 -5.269531 5.734375 -6.046875 5.417969 -6.976562 L 17.011719 -6.976562 C 18.199219 -6.976562 19.035156 -7.753906 19.035156 -8.941406 C 18.980469 -11.371094 17.957031 -13.65625 16.308594 -15.285156 C 14.621094 -16.9375 12.355469 -17.902344 9.925781 -17.902344 C 7.476562 -17.902344 5.175781 -16.902344 3.488281 -15.25 C 1.800781 -13.597656 0.816406 -11.296875 0.816406 -8.832031 C 0.816406 -6.382812 1.800781 -4.101562 3.488281 -2.449219 C 5.175781 -0.796875 7.476562 0.203125 9.925781 0.203125 Z M 5.289062 -10.425781 C 5.566406 -11.410156 6.160156 -12.335938 6.976562 -12.949219 C 7.847656 -13.636719 8.867188 -13.96875 10 -13.96875 C 11.167969 -13.96875 12.1875 -13.636719 13.0625 -12.988281 C 13.894531 -12.335938 14.507812 -11.445312 14.804688 -10.425781 Z M 5.289062 -10.425781" transform="translate(223.588 187.169)"/></g></g></g><g><g><g><path d="M 10.296875 0 C 11.800781 -0.0195312 13.191406 -0.628906 14.175781 -1.667969 C 15.136719 -2.691406 15.675781 -4.0625 15.675781 -5.527344 C 15.675781 -6.996094 15.101562 -8.421875 14.136719 -9.460938 C 13.152344 -10.519531 11.761719 -11.148438 10.222656 -11.148438 L 6.714844 -11.148438 C 6.03125 -11.148438 5.417969 -11.667969 5.417969 -12.46875 C 5.417969 -13.191406 5.992188 -13.785156 6.714844 -13.785156 L 12.839844 -13.785156 C 13.375 -13.785156 13.839844 -13.988281 14.230469 -14.378906 C 14.621094 -14.785156 14.804688 -15.285156 14.804688 -15.898438 C 14.804688 -17.140625 13.914062 -17.902344 12.746094 -17.902344 L 6.660156 -17.902344 C 5.195312 -17.902344 3.859375 -17.328125 2.875 -16.34375 C 1.890625 -15.378906 1.296875 -14.027344 1.296875 -12.617188 C 1.296875 -11.148438 1.875 -9.757812 2.839844 -8.699219 C 3.804688 -7.644531 5.15625 -7.011719 6.660156 -7.011719 L 9.851562 -7.011719 C 10.316406 -7.011719 10.703125 -6.921875 11.019531 -6.714844 C 11.371094 -6.476562 11.558594 -6.121094 11.558594 -5.621094 C 11.558594 -5.140625 11.371094 -4.769531 11.019531 -4.488281 C 10.703125 -4.25 10.332031 -4.117188 9.925781 -4.117188 L 2.875 -4.117188 C 1.742188 -4.117188 0.984375 -3.339844 0.984375 -2.097656 C 0.984375 -0.835938 1.761719 0 2.875 0 Z M 10.296875 0" transform="translate(243.419 187.169)"/></g></g></g></svg>