<svg xmlns="http://www.w3.org/2000/svg" width="375" viewBox="0 0 375 375" height="375" version="1.0"><path d="M 113.859375 96.515625 C 114.519531 96.515625 115.175781 96.546875 115.832031 96.613281 C 116.484375 96.675781 117.136719 96.773438 117.78125 96.902344 C 118.429688 97.03125 119.066406 97.1875 119.695312 97.378906 C 120.328125 97.570312 120.945312 97.792969 121.554688 98.046875 C 122.164062 98.296875 122.757812 98.578125 123.339844 98.890625 C 123.917969 99.199219 124.484375 99.539062 125.03125 99.902344 C 125.578125 100.269531 126.109375 100.660156 126.617188 101.078125 C 127.125 101.496094 127.613281 101.9375 128.078125 102.40625 C 128.542969 102.871094 128.988281 103.359375 129.40625 103.867188 C 129.820312 104.375 130.214844 104.902344 130.578125 105.453125 C 130.945312 106 131.285156 106.5625 131.59375 107.144531 C 131.90625 107.726562 132.1875 108.320312 132.4375 108.929688 C 132.691406 109.535156 132.910156 110.15625 133.101562 110.785156 C 133.292969 111.417969 133.453125 112.054688 133.582031 112.699219 C 133.710938 113.347656 133.808594 113.996094 133.871094 114.652344 C 133.9375 115.308594 133.96875 115.964844 133.96875 116.625 C 133.96875 117.28125 133.9375 117.941406 133.871094 118.59375 C 133.808594 119.25 133.710938 119.902344 133.582031 120.546875 C 133.453125 121.191406 133.292969 121.832031 133.101562 122.460938 C 132.910156 123.089844 132.691406 123.710938 132.4375 124.320312 C 132.1875 124.929688 131.90625 125.523438 131.59375 126.105469 C 131.285156 126.683594 130.945312 127.25 130.578125 127.796875 C 130.214844 128.34375 129.820312 128.871094 129.40625 129.382812 C 128.988281 129.890625 128.542969 130.378906 128.078125 130.84375 C 127.613281 131.308594 127.125 131.75 126.617188 132.167969 C 126.109375 132.585938 125.578125 132.980469 125.03125 133.34375 C 124.484375 133.710938 123.917969 134.046875 123.339844 134.359375 C 122.757812 134.667969 122.164062 134.949219 121.554688 135.203125 C 120.945312 135.453125 120.328125 135.675781 119.695312 135.867188 C 119.066406 136.058594 118.429688 136.21875 117.78125 136.347656 C 117.136719 136.476562 116.484375 136.570312 115.832031 136.636719 C 115.175781 136.703125 114.519531 136.734375 113.859375 136.734375 C 113.199219 136.734375 112.542969 136.703125 111.886719 136.636719 C 111.234375 136.570312 110.582031 136.476562 109.9375 136.347656 C 109.289062 136.21875 108.652344 136.058594 108.023438 135.867188 C 107.390625 135.675781 106.773438 135.453125 106.164062 135.203125 C 105.554688 134.949219 104.960938 134.667969 104.378906 134.359375 C 103.800781 134.046875 103.234375 133.710938 102.6875 133.34375 C 102.140625 132.980469 101.609375 132.585938 101.101562 132.167969 C 100.59375 131.75 100.105469 131.308594 99.640625 130.84375 C 99.175781 130.378906 98.734375 129.890625 98.316406 129.382812 C 97.898438 128.871094 97.503906 128.34375 97.140625 127.796875 C 96.773438 127.25 96.433594 126.683594 96.125 126.105469 C 95.8125 125.523438 95.53125 124.929688 95.28125 124.320312 C 95.027344 123.710938 94.808594 123.089844 94.617188 122.460938 C 94.425781 121.832031 94.265625 121.191406 94.136719 120.546875 C 94.007812 119.902344 93.910156 119.25 93.847656 118.59375 C 93.78125 117.941406 93.75 117.28125 93.75 116.625 C 93.75 115.964844 93.78125 115.308594 93.847656 114.652344 C 93.910156 113.996094 94.007812 113.347656 94.136719 112.699219 C 94.265625 112.054688 94.425781 111.417969 94.617188 110.785156 C 94.808594 110.15625 95.027344 109.535156 95.28125 108.929688 C 95.53125 108.320312 95.8125 107.726562 96.125 107.144531 C 96.433594 106.5625 96.773438 106 97.140625 105.453125 C 97.503906 104.902344 97.898438 104.375 98.316406 103.867188 C 98.734375 103.359375 99.175781 102.871094 99.640625 102.40625 C 100.105469 101.9375 100.59375 101.496094 101.101562 101.078125 C 101.609375 100.660156 102.140625 100.269531 102.6875 99.902344 C 103.234375 99.539062 103.800781 99.199219 104.378906 98.890625 C 104.960938 98.578125 105.554688 98.296875 106.164062 98.046875 C 106.773438 97.792969 107.390625 97.570312 108.023438 97.378906 C 108.652344 97.1875 109.289062 97.03125 109.9375 96.902344 C 110.582031 96.773438 111.234375 96.675781 111.886719 96.613281 C 112.542969 96.546875 113.199219 96.515625 113.859375 96.515625 L 113.859375 104.558594 C 113.066406 104.558594 112.28125 104.636719 111.503906 104.789062 C 110.730469 104.945312 109.972656 105.171875 109.242188 105.476562 C 108.511719 105.78125 107.816406 106.152344 107.15625 106.589844 C 106.496094 107.03125 105.886719 107.53125 105.328125 108.09375 C 104.765625 108.652344 104.265625 109.261719 103.828125 109.921875 C 103.386719 110.578125 103.015625 111.273438 102.710938 112.007812 C 102.410156 112.738281 102.179688 113.492188 102.027344 114.269531 C 101.871094 115.046875 101.792969 115.832031 101.792969 116.625 C 101.792969 117.417969 101.871094 118.199219 102.027344 118.976562 C 102.179688 119.753906 102.410156 120.507812 102.710938 121.242188 C 103.015625 121.972656 103.386719 122.667969 103.828125 123.328125 C 104.265625 123.984375 104.765625 124.59375 105.328125 125.15625 C 105.886719 125.714844 106.496094 126.214844 107.15625 126.65625 C 107.816406 127.097656 108.511719 127.46875 109.242188 127.769531 C 109.972656 128.074219 110.730469 128.304688 111.503906 128.457031 C 112.28125 128.613281 113.066406 128.691406 113.859375 128.691406 C 114.652344 128.691406 115.4375 128.613281 116.214844 128.457031 C 116.992188 128.304688 117.746094 128.074219 118.476562 127.769531 C 119.207031 127.46875 119.902344 127.097656 120.5625 126.65625 C 121.222656 126.214844 121.832031 125.714844 122.390625 125.15625 C 122.953125 124.59375 123.453125 123.984375 123.890625 123.328125 C 124.332031 122.667969 124.703125 121.972656 125.007812 121.242188 C 125.308594 120.507812 125.539062 119.753906 125.695312 118.976562 C 125.847656 118.199219 125.925781 117.417969 125.925781 116.625 C 125.925781 115.832031 125.847656 115.046875 125.695312 114.269531 C 125.539062 113.492188 125.308594 112.738281 125.007812 112.007812 C 124.703125 111.273438 124.332031 110.578125 123.890625 109.921875 C 123.453125 109.261719 122.953125 108.652344 122.390625 108.09375 C 121.832031 107.53125 121.222656 107.03125 120.5625 106.589844 C 119.902344 106.152344 119.207031 105.78125 118.476562 105.476562 C 117.746094 105.171875 116.992188 104.945312 116.214844 104.789062 C 115.4375 104.636719 114.652344 104.558594 113.859375 104.558594 Z M 113.859375 96.515625"/><path fill="#6CE5E8" d="M 118.886719 97.152344 C 120.097656 97.464844 121.265625 97.886719 122.398438 98.417969 C 123.527344 98.945312 124.597656 99.578125 125.613281 100.308594 C 126.625 101.035156 127.5625 101.855469 128.425781 102.757812 C 129.285156 103.664062 130.054688 104.640625 130.734375 105.6875 C 131.414062 106.734375 131.992188 107.835938 132.464844 108.992188 C 132.9375 110.148438 133.300781 111.335938 133.554688 112.558594 C 133.804688 113.78125 133.945312 115.019531 133.964844 116.265625 C 133.988281 117.515625 133.894531 118.753906 133.6875 119.988281 C 133.476562 121.21875 133.15625 122.417969 132.722656 123.589844 C 132.292969 124.761719 131.753906 125.882812 131.113281 126.953125 C 130.472656 128.027344 129.734375 129.03125 128.90625 129.964844 C 128.078125 130.898438 127.171875 131.75 126.183594 132.511719 C 125.199219 133.277344 124.148438 133.945312 123.039062 134.515625 C 121.925781 135.085938 120.773438 135.550781 119.574219 135.902344 C 118.378906 136.257812 117.15625 136.5 115.914062 136.628906 C 114.671875 136.753906 113.429688 136.769531 112.1875 136.664062 C 110.941406 136.558594 109.71875 136.34375 108.511719 136.011719 C 107.308594 135.679688 106.148438 135.238281 105.023438 134.6875 C 103.902344 134.140625 102.839844 133.492188 101.839844 132.746094 C 100.839844 132 99.914062 131.167969 99.070312 130.25 C 98.222656 129.332031 97.46875 128.34375 96.808594 127.28125 C 96.144531 126.222656 95.585938 125.113281 95.132812 123.949219 C 94.675781 122.785156 94.332031 121.59375 94.101562 120.363281 C 93.867188 119.136719 93.75 117.898438 93.75 116.652344 C 93.75 116.386719 93.773438 116.125 93.824219 115.867188 C 93.878906 115.605469 93.953125 115.355469 94.054688 115.109375 C 94.15625 114.867188 94.277344 114.636719 94.425781 114.414062 C 94.570312 114.195312 94.738281 113.992188 94.921875 113.804688 C 95.109375 113.617188 95.3125 113.449219 95.53125 113.304688 C 95.75 113.15625 95.984375 113.03125 96.226562 112.929688 C 96.472656 112.828125 96.722656 112.753906 96.980469 112.699219 C 97.242188 112.648438 97.503906 112.621094 97.765625 112.621094 C 98.03125 112.621094 98.292969 112.648438 98.550781 112.699219 C 98.808594 112.75 99.0625 112.824219 99.304688 112.925781 C 99.550781 113.027344 99.78125 113.152344 100.003906 113.296875 C 100.222656 113.445312 100.425781 113.609375 100.613281 113.796875 C 100.800781 113.984375 100.964844 114.1875 101.113281 114.40625 C 101.261719 114.625 101.382812 114.855469 101.484375 115.101562 C 101.585938 115.34375 101.664062 115.597656 101.714844 115.855469 C 101.765625 116.113281 101.792969 116.375 101.792969 116.640625 C 101.792969 117.390625 101.863281 118.132812 102.003906 118.867188 C 102.144531 119.605469 102.351562 120.320312 102.621094 121.019531 C 102.894531 121.71875 103.230469 122.382812 103.628906 123.019531 C 104.023438 123.65625 104.476562 124.246094 104.984375 124.800781 C 105.492188 125.351562 106.046875 125.847656 106.648438 126.296875 C 107.25 126.746094 107.886719 127.132812 108.558594 127.464844 C 109.230469 127.792969 109.929688 128.054688 110.652344 128.253906 C 111.375 128.453125 112.109375 128.585938 112.855469 128.648438 C 113.601562 128.710938 114.347656 128.703125 115.09375 128.625 C 115.839844 128.550781 116.570312 128.40625 117.289062 128.191406 C 118.007812 127.980469 118.699219 127.703125 119.367188 127.359375 C 120.035156 127.019531 120.664062 126.617188 121.253906 126.15625 C 121.847656 125.699219 122.390625 125.1875 122.886719 124.628906 C 123.386719 124.066406 123.828125 123.464844 124.210938 122.824219 C 124.597656 122.179688 124.917969 121.507812 125.179688 120.804688 C 125.4375 120.101562 125.628906 119.378906 125.753906 118.640625 C 125.878906 117.902344 125.9375 117.160156 125.921875 116.410156 C 125.910156 115.660156 125.828125 114.917969 125.675781 114.183594 C 125.523438 113.453125 125.308594 112.738281 125.023438 112.042969 C 124.738281 111.351562 124.390625 110.691406 123.984375 110.0625 C 123.578125 109.433594 123.113281 108.847656 122.597656 108.304688 C 122.082031 107.761719 121.519531 107.273438 120.910156 106.832031 C 120.304688 106.394531 119.660156 106.019531 118.980469 105.699219 C 118.304688 105.382812 117.601562 105.128906 116.875 104.941406 C 116.621094 104.875 116.375 104.785156 116.136719 104.671875 C 115.898438 104.554688 115.671875 104.417969 115.460938 104.261719 C 115.25 104.101562 115.058594 103.921875 114.882812 103.726562 C 114.707031 103.53125 114.550781 103.316406 114.417969 103.089844 C 114.28125 102.863281 114.171875 102.625 114.085938 102.375 C 113.996094 102.125 113.9375 101.871094 113.898438 101.609375 C 113.863281 101.347656 113.851562 101.085938 113.867188 100.820312 C 113.878906 100.558594 113.921875 100.296875 113.988281 100.042969 C 114.054688 99.785156 114.144531 99.539062 114.257812 99.300781 C 114.371094 99.0625 114.507812 98.839844 114.667969 98.628906 C 114.828125 98.417969 115.003906 98.222656 115.203125 98.046875 C 115.398438 97.871094 115.609375 97.714844 115.839844 97.582031 C 116.066406 97.449219 116.304688 97.339844 116.554688 97.25 C 116.804688 97.164062 117.058594 97.101562 117.320312 97.066406 C 117.582031 97.027344 117.84375 97.015625 118.109375 97.03125 C 118.371094 97.046875 118.632812 97.085938 118.886719 97.152344 Z M 118.886719 97.152344"/><g><g><g><path d="M 10.371094 0.203125 C 12.726562 0.203125 14.839844 -0.742188 16.34375 -2.375 C 17.847656 -4.007812 18.71875 -6.160156 18.71875 -8.550781 L 18.71875 -15.804688 C 18.71875 -16.34375 18.496094 -16.882812 18.144531 -17.253906 C 17.734375 -17.660156 17.253906 -17.867188 16.695312 -17.867188 C 16.160156 -17.867188 15.65625 -17.660156 15.230469 -17.253906 C 14.839844 -16.882812 14.601562 -16.34375 14.601562 -15.804688 L 14.601562 -8.550781 C 14.601562 -7.234375 14.191406 -6.085938 13.449219 -5.269531 C 12.691406 -4.398438 11.632812 -3.914062 10.371094 -3.914062 C 9.089844 -3.914062 7.941406 -4.414062 7.105469 -5.25 C 6.269531 -6.085938 5.769531 -7.234375 5.769531 -8.515625 L 5.769531 -15.804688 C 5.769531 -16.363281 5.566406 -16.84375 5.15625 -17.253906 C 4.769531 -17.644531 4.265625 -17.847656 3.691406 -17.847656 C 3.117188 -17.847656 2.632812 -17.644531 2.246094 -17.253906 C 1.855469 -16.863281 1.652344 -16.382812 1.652344 -15.804688 L 1.652344 -8.550781 C 1.652344 -6.179688 2.578125 -4.007812 4.191406 -2.375 C 5.808594 -0.742188 7.996094 0.203125 10.371094 0.203125 Z M 10.371094 0.203125" transform="translate(134.986 133.9)"/></g></g></g><g><g><g><path d="M 3.765625 0 C 4.304688 0 4.824219 -0.222656 5.195312 -0.59375 C 5.585938 -1 5.769531 -1.484375 5.769531 -2.039062 L 5.769531 -8.535156 C 5.789062 -9.960938 6.402344 -11.261719 7.382812 -12.246094 C 8.367188 -13.210938 9.683594 -13.785156 11.074219 -13.804688 L 11.167969 -13.804688 C 11.761719 -13.804688 12.261719 -14.007812 12.691406 -14.398438 C 13.0625 -14.769531 13.300781 -15.285156 13.300781 -15.863281 C 13.300781 -17.066406 12.503906 -17.902344 11.167969 -17.902344 L 11.132812 -17.902344 C 8.589844 -17.902344 6.214844 -16.882812 4.453125 -15.121094 C 2.691406 -13.359375 1.652344 -10.945312 1.652344 -8.402344 L 1.652344 -2.039062 C 1.652344 -1.464844 1.855469 -0.984375 2.28125 -0.59375 C 2.707031 -0.203125 3.191406 0 3.765625 0 Z M 3.765625 0" transform="translate(155.355 133.9)"/></g></g></g><path d="M 122.019531 147.179688 L 122.019531 179.84375 C 122.019531 180.109375 121.992188 180.375 121.941406 180.636719 C 121.890625 180.902344 121.8125 181.15625 121.710938 181.40625 C 121.605469 181.652344 121.480469 181.886719 121.332031 182.109375 C 121.183594 182.332031 121.011719 182.539062 120.824219 182.730469 C 120.632812 182.917969 120.429688 183.089844 120.207031 183.238281 C 119.980469 183.386719 119.746094 183.511719 119.5 183.613281 C 119.25 183.71875 118.996094 183.792969 118.734375 183.847656 C 118.46875 183.898438 118.203125 183.925781 117.9375 183.925781 C 117.667969 183.925781 117.402344 183.898438 117.140625 183.847656 C 116.878906 183.792969 116.621094 183.71875 116.375 183.613281 C 116.125 183.511719 115.890625 183.386719 115.667969 183.238281 C 115.445312 183.089844 115.238281 182.917969 115.050781 182.730469 C 114.859375 182.539062 114.691406 182.332031 114.542969 182.109375 C 114.394531 181.886719 114.265625 181.652344 114.164062 181.40625 C 114.0625 181.15625 113.984375 180.902344 113.933594 180.636719 C 113.878906 180.375 113.855469 180.109375 113.855469 179.84375 L 113.855469 147.179688 C 113.855469 146.910156 113.878906 146.644531 113.933594 146.382812 C 113.984375 146.117188 114.0625 145.863281 114.164062 145.617188 C 114.265625 145.367188 114.394531 145.132812 114.542969 144.910156 C 114.691406 144.6875 114.859375 144.480469 115.050781 144.292969 C 115.238281 144.101562 115.445312 143.933594 115.667969 143.785156 C 115.890625 143.632812 116.125 143.507812 116.375 143.40625 C 116.621094 143.304688 116.878906 143.226562 117.140625 143.175781 C 117.402344 143.121094 117.667969 143.09375 117.9375 143.09375 C 118.203125 143.09375 118.46875 143.121094 118.734375 143.175781 C 118.996094 143.226562 119.25 143.304688 119.5 143.40625 C 119.746094 143.507812 119.980469 143.632812 120.207031 143.785156 C 120.429688 143.933594 120.632812 144.101562 120.824219 144.292969 C 121.011719 144.480469 121.183594 144.6875 121.332031 144.910156 C 121.480469 145.132812 121.605469 145.367188 121.710938 145.617188 C 121.8125 145.863281 121.890625 146.117188 121.941406 146.382812 C 121.992188 146.644531 122.019531 146.910156 122.019531 147.179688 Z M 122.019531 147.179688"/><path fill="#6CE5E8" d="M 122.019531 147.179688 L 122.019531 152.484375 C 122.019531 152.753906 121.992188 153.019531 121.941406 153.28125 C 121.890625 153.546875 121.8125 153.800781 121.710938 154.046875 C 121.605469 154.296875 121.480469 154.53125 121.332031 154.753906 C 121.183594 154.976562 121.011719 155.183594 120.824219 155.375 C 120.632812 155.5625 120.429688 155.730469 120.207031 155.882812 C 119.980469 156.03125 119.746094 156.15625 119.5 156.257812 C 119.25 156.359375 118.996094 156.4375 118.734375 156.492188 C 118.46875 156.542969 118.203125 156.570312 117.9375 156.570312 C 117.667969 156.570312 117.402344 156.542969 117.140625 156.492188 C 116.878906 156.4375 116.621094 156.359375 116.375 156.257812 C 116.125 156.15625 115.890625 156.03125 115.667969 155.882812 C 115.445312 155.730469 115.238281 155.5625 115.050781 155.375 C 114.859375 155.183594 114.691406 154.976562 114.542969 154.753906 C 114.394531 154.53125 114.265625 154.296875 114.164062 154.046875 C 114.0625 153.800781 113.984375 153.546875 113.933594 153.28125 C 113.878906 153.019531 113.855469 152.753906 113.855469 152.484375 L 113.855469 147.179688 C 113.855469 146.910156 113.878906 146.644531 113.933594 146.382812 C 113.984375 146.117188 114.0625 145.863281 114.164062 145.617188 C 114.265625 145.367188 114.394531 145.132812 114.542969 144.910156 C 114.691406 144.6875 114.859375 144.480469 115.050781 144.292969 C 115.238281 144.101562 115.445312 143.933594 115.667969 143.785156 C 115.890625 143.632812 116.125 143.507812 116.375 143.40625 C 116.621094 143.304688 116.878906 143.226562 117.140625 143.175781 C 117.402344 143.121094 117.667969 143.09375 117.9375 143.09375 C 118.203125 143.09375 118.46875 143.121094 118.734375 143.175781 C 118.996094 143.226562 119.25 143.304688 119.5 143.40625 C 119.746094 143.507812 119.980469 143.632812 120.207031 143.785156 C 120.429688 143.933594 120.632812 144.101562 120.824219 144.292969 C 121.011719 144.480469 121.183594 144.6875 121.332031 144.910156 C 121.480469 145.132812 121.605469 145.367188 121.710938 145.617188 C 121.8125 145.863281 121.890625 146.117188 121.941406 146.382812 C 121.992188 146.644531 122.019531 146.910156 122.019531 147.179688 Z M 122.019531 147.179688"/><path d="M 116.914062 143.097656 L 139.804688 143.097656 C 140.183594 143.097656 140.546875 143.171875 140.898438 143.316406 C 141.25 143.460938 141.558594 143.667969 141.828125 143.9375 C 142.09375 144.207031 142.300781 144.515625 142.445312 144.867188 C 142.59375 145.214844 142.664062 145.582031 142.664062 145.960938 C 142.664062 146.339844 142.59375 146.703125 142.445312 147.054688 C 142.300781 147.40625 142.09375 147.714844 141.828125 147.984375 C 141.558594 148.25 141.25 148.457031 140.898438 148.605469 C 140.546875 148.75 140.183594 148.820312 139.804688 148.820312 L 116.914062 148.820312 C 116.535156 148.820312 116.171875 148.75 115.820312 148.605469 C 115.46875 148.457031 115.160156 148.25 114.890625 147.984375 C 114.625 147.714844 114.417969 147.40625 114.273438 147.054688 C 114.125 146.703125 114.054688 146.339844 114.054688 145.960938 C 114.054688 145.582031 114.125 145.214844 114.273438 144.867188 C 114.417969 144.515625 114.625 144.207031 114.890625 143.9375 C 115.160156 143.667969 115.46875 143.460938 115.820312 143.316406 C 116.171875 143.171875 116.535156 143.097656 116.914062 143.097656 Z M 116.914062 143.097656"/><path fill="#6CE5E8" d="M 116.914062 143.097656 L 130.363281 143.097656 C 130.742188 143.097656 131.105469 143.171875 131.457031 143.316406 C 131.808594 143.460938 132.117188 143.667969 132.386719 143.9375 C 132.652344 144.207031 132.859375 144.515625 133.003906 144.867188 C 133.152344 145.214844 133.222656 145.582031 133.222656 145.960938 C 133.222656 146.339844 133.152344 146.703125 133.003906 147.054688 C 132.859375 147.40625 132.652344 147.714844 132.386719 147.984375 C 132.117188 148.25 131.808594 148.457031 131.457031 148.605469 C 131.105469 148.75 130.742188 148.820312 130.363281 148.820312 L 116.914062 148.820312 C 116.535156 148.820312 116.171875 148.75 115.820312 148.605469 C 115.46875 148.457031 115.160156 148.25 114.890625 147.984375 C 114.625 147.714844 114.417969 147.40625 114.273438 147.054688 C 114.125 146.703125 114.054688 146.339844 114.054688 145.960938 C 114.054688 145.582031 114.125 145.214844 114.273438 144.867188 C 114.417969 144.515625 114.625 144.207031 114.890625 143.9375 C 115.160156 143.667969 115.46875 143.460938 115.820312 143.316406 C 116.171875 143.171875 116.535156 143.097656 116.914062 143.097656 Z M 116.914062 143.097656"/><g><g><g><path d="M 3.988281 -19.738281 C 4.582031 -19.738281 5.15625 -19.980469 5.585938 -20.40625 C 6.03125 -20.851562 6.253906 -21.390625 6.253906 -22.003906 C 6.253906 -22.597656 6.011719 -23.171875 5.585938 -23.597656 C 5.15625 -24.023438 4.601562 -24.246094 3.988281 -24.246094 C 3.359375 -24.246094 2.820312 -24.023438 2.394531 -23.597656 C 1.964844 -23.171875 1.726562 -22.597656 1.726562 -22.003906 C 1.726562 -21.390625 1.949219 -20.851562 2.394531 -20.40625 C 2.839844 -19.960938 3.375 -19.738281 3.988281 -19.738281 Z M 3.988281 0.167969 C 4.5625 0.167969 5.046875 -0.0351562 5.4375 -0.425781 C 5.824219 -0.816406 6.03125 -1.296875 6.03125 -1.875 L 6.03125 -15.84375 C 6.03125 -16.382812 5.808594 -16.917969 5.453125 -17.289062 C 5.046875 -17.699219 4.5625 -17.902344 4.007812 -17.902344 C 3.433594 -17.902344 2.894531 -17.660156 2.523438 -17.289062 C 2.132812 -16.917969 1.890625 -16.382812 1.890625 -15.84375 L 1.890625 -1.875 C 1.890625 -1.296875 2.097656 -0.816406 2.523438 -0.425781 C 2.914062 -0.0351562 3.414062 0.167969 3.988281 0.167969 Z M 3.988281 0.167969" transform="translate(130.64 183.419)"/></g></g></g><g><g><g><path d="M 3.300781 0 C 3.839844 0 4.359375 -0.222656 4.730469 -0.59375 C 5.121094 -0.984375 5.304688 -1.445312 5.304688 -2.023438 L 5.304688 -9.128906 C 5.304688 -10.390625 5.789062 -11.59375 6.605469 -12.429688 C 7.4375 -13.265625 8.570312 -13.765625 9.851562 -13.765625 C 11.09375 -13.765625 12.261719 -13.265625 13.136719 -12.394531 C 14.007812 -11.558594 14.527344 -10.371094 14.546875 -9.109375 L 14.546875 -2.023438 C 14.546875 -1.445312 14.75 -0.984375 15.175781 -0.59375 C 15.566406 -0.203125 16.066406 0 16.640625 0 C 17.214844 0 17.699219 -0.203125 18.089844 -0.59375 C 18.476562 -0.984375 18.664062 -1.445312 18.664062 -2.023438 L 18.664062 -9.128906 C 18.664062 -11.503906 17.71875 -13.710938 16.085938 -15.34375 C 14.472656 -16.957031 12.246094 -17.902344 9.851562 -17.902344 C 7.457031 -17.902344 5.289062 -16.976562 3.710938 -15.34375 C 2.097656 -13.710938 1.167969 -11.519531 1.167969 -9.128906 L 1.167969 -2.023438 C 1.167969 -1.464844 1.390625 -0.984375 1.816406 -0.59375 C 2.1875 -0.222656 2.726562 0 3.300781 0 Z M 3.300781 0" transform="translate(138.598 183.419)"/></g></g></g><g><g><g><path d="M 9.871094 0.203125 C 11.667969 0.203125 13.339844 -0.296875 14.839844 -1.296875 C 15.082031 -0.40625 15.824219 0.167969 16.789062 0.167969 C 17.382812 0.167969 17.882812 -0.0351562 18.273438 -0.464844 C 18.683594 -0.871094 18.886719 -1.371094 18.886719 -1.949219 L 18.886719 -8.832031 C 18.886719 -11.296875 17.902344 -13.5625 16.25 -15.25 C 14.5625 -16.9375 12.320312 -17.902344 9.871094 -17.902344 C 7.4375 -17.902344 5.15625 -16.902344 3.507812 -15.25 C 1.855469 -13.5625 0.851562 -11.28125 0.851562 -8.832031 C 0.851562 -6.382812 1.816406 -4.136719 3.507812 -2.449219 C 5.15625 -0.796875 7.4375 0.203125 9.871094 0.203125 Z M 9.871094 -3.914062 C 8.535156 -3.914062 7.308594 -4.453125 6.417969 -5.363281 C 5.511719 -6.269531 4.992188 -7.496094 4.992188 -8.832031 C 4.992188 -10.167969 5.511719 -11.390625 6.417969 -12.300781 C 7.328125 -13.210938 8.550781 -13.730469 9.871094 -13.730469 C 11.207031 -13.730469 12.46875 -13.191406 13.359375 -12.300781 C 14.25 -11.390625 14.769531 -10.167969 14.769531 -8.832031 C 14.769531 -7.496094 14.25 -6.269531 13.359375 -5.363281 C 12.449219 -4.453125 11.207031 -3.914062 9.871094 -3.914062 Z M 9.871094 -3.914062" transform="translate(158.967 183.419)"/></g></g></g><g><g><g><path d="M 3.300781 0 C 3.839844 0 4.359375 -0.222656 4.730469 -0.59375 C 5.121094 -0.984375 5.304688 -1.445312 5.304688 -2.023438 L 5.304688 -9.128906 C 5.304688 -10.390625 5.789062 -11.59375 6.605469 -12.429688 C 7.4375 -13.265625 8.570312 -13.765625 9.851562 -13.765625 C 11.09375 -13.765625 12.261719 -13.265625 13.136719 -12.394531 C 14.007812 -11.558594 14.527344 -10.371094 14.546875 -9.109375 L 14.546875 -2.023438 C 14.546875 -1.445312 14.75 -0.984375 15.175781 -0.59375 C 15.566406 -0.203125 16.066406 0 16.640625 0 C 17.214844 0 17.699219 -0.203125 18.089844 -0.59375 C 18.476562 -0.984375 18.664062 -1.445312 18.664062 -2.023438 L 18.664062 -9.128906 C 18.664062 -11.503906 17.71875 -13.710938 16.085938 -15.34375 C 14.472656 -16.957031 12.246094 -17.902344 9.851562 -17.902344 C 7.457031 -17.902344 5.289062 -16.976562 3.710938 -15.34375 C 2.097656 -13.710938 1.167969 -11.519531 1.167969 -9.128906 L 1.167969 -2.023438 C 1.167969 -1.464844 1.390625 -0.984375 1.816406 -0.59375 C 2.1875 -0.222656 2.726562 0 3.300781 0 Z M 3.300781 0" transform="translate(179.54 183.419)"/></g></g></g><g><g><g><path d="M 10.019531 0.203125 C 12.410156 0.203125 14.65625 -0.667969 16.214844 -2.226562 C 16.714844 -2.726562 16.957031 -3.339844 16.957031 -3.933594 C 16.957031 -4.507812 16.714844 -4.992188 16.25 -5.398438 C 15.863281 -5.75 15.324219 -5.957031 14.898438 -5.957031 C 14.621094 -5.957031 14.359375 -5.898438 14.101562 -5.789062 C 13.582031 -5.546875 12.929688 -5.027344 12.726562 -4.878906 C 11.761719 -4.191406 10.890625 -3.96875 9.777344 -3.96875 C 8.460938 -3.96875 7.253906 -4.546875 6.382812 -5.492188 C 5.546875 -6.402344 5.046875 -7.644531 5.046875 -8.847656 C 5.046875 -10.035156 5.546875 -11.242188 6.363281 -12.152344 C 7.199219 -13.0625 8.347656 -13.65625 9.628906 -13.710938 C 10.835938 -13.710938 11.742188 -13.488281 12.726562 -12.800781 C 13.191406 -12.449219 13.523438 -12.207031 13.710938 -12.097656 C 14.101562 -11.855469 14.488281 -11.726562 14.878906 -11.726562 C 15.269531 -11.726562 15.789062 -11.910156 16.214844 -12.261719 C 16.714844 -12.671875 16.957031 -13.171875 16.957031 -13.765625 C 16.957031 -14.398438 16.714844 -14.972656 16.214844 -15.472656 C 14.65625 -17.03125 12.410156 -17.902344 10.019531 -17.902344 C 7.496094 -17.902344 5.214844 -16.9375 3.507812 -15.25 C 1.800781 -13.5625 0.816406 -11.261719 0.816406 -8.757812 C 0.816406 -6.289062 1.816406 -4.042969 3.523438 -2.394531 C 5.214844 -0.742188 7.511719 0.203125 10.019531 0.203125 Z M 10.019531 0.203125" transform="translate(199.909 183.419)"/></g></g></g><g><g><g><path d="M 9.925781 0.203125 C 11.558594 0.203125 13.003906 -0.0546875 13.988281 -0.554688 C 14.972656 -1.058594 15.546875 -1.761719 15.546875 -2.578125 C 15.546875 -3.117188 15.324219 -3.671875 14.972656 -4.0625 C 14.5625 -4.488281 14.082031 -4.710938 13.523438 -4.710938 C 13.171875 -4.710938 12.765625 -4.582031 12.320312 -4.324219 C 11.652344 -3.933594 11.019531 -3.746094 9.925781 -3.746094 C 8.886719 -3.746094 7.957031 -4.042969 7.144531 -4.65625 C 6.308594 -5.269531 5.734375 -6.046875 5.417969 -6.976562 L 17.011719 -6.976562 C 18.199219 -6.976562 19.035156 -7.753906 19.035156 -8.941406 C 18.980469 -11.371094 17.957031 -13.65625 16.308594 -15.285156 C 14.621094 -16.9375 12.355469 -17.902344 9.925781 -17.902344 C 7.476562 -17.902344 5.175781 -16.902344 3.488281 -15.25 C 1.800781 -13.597656 0.816406 -11.296875 0.816406 -8.832031 C 0.816406 -6.382812 1.800781 -4.101562 3.488281 -2.449219 C 5.175781 -0.796875 7.476562 0.203125 9.925781 0.203125 Z M 5.289062 -10.425781 C 5.566406 -11.410156 6.160156 -12.335938 6.976562 -12.949219 C 7.847656 -13.636719 8.867188 -13.96875 10 -13.96875 C 11.167969 -13.96875 12.1875 -13.636719 13.0625 -12.988281 C 13.894531 -12.335938 14.507812 -11.445312 14.804688 -10.425781 Z M 5.289062 -10.425781" transform="translate(217.699 183.419)"/></g></g></g><g><g><g><path d="M 10.296875 0 C 11.800781 -0.0195312 13.191406 -0.628906 14.175781 -1.667969 C 15.136719 -2.691406 15.675781 -4.0625 15.675781 -5.527344 C 15.675781 -6.996094 15.101562 -8.421875 14.136719 -9.460938 C 13.152344 -10.519531 11.761719 -11.148438 10.222656 -11.148438 L 6.714844 -11.148438 C 6.03125 -11.148438 5.417969 -11.667969 5.417969 -12.46875 C 5.417969 -13.191406 5.992188 -13.785156 6.714844 -13.785156 L 12.839844 -13.785156 C 13.375 -13.785156 13.839844 -13.988281 14.230469 -14.378906 C 14.621094 -14.785156 14.804688 -15.285156 14.804688 -15.898438 C 14.804688 -17.140625 13.914062 -17.902344 12.746094 -17.902344 L 6.660156 -17.902344 C 5.195312 -17.902344 3.859375 -17.328125 2.875 -16.34375 C 1.890625 -15.378906 1.296875 -14.027344 1.296875 -12.617188 C 1.296875 -11.148438 1.875 -9.757812 2.839844 -8.699219 C 3.804688 -7.644531 5.15625 -7.011719 6.660156 -7.011719 L 9.851562 -7.011719 C 10.316406 -7.011719 10.703125 -6.921875 11.019531 -6.714844 C 11.371094 -6.476562 11.558594 -6.121094 11.558594 -5.621094 C 11.558594 -5.140625 11.371094 -4.769531 11.019531 -4.488281 C 10.703125 -4.25 10.332031 -4.117188 9.925781 -4.117188 L 2.875 -4.117188 C 1.742188 -4.117188 0.984375 -3.339844 0.984375 -2.097656 C 0.984375 -0.835938 1.761719 0 2.875 0 Z M 10.296875 0" transform="translate(237.53 183.419)"/></g></g></g><path d="M 134.757812 163.640625 L 116.617188 163.640625 C 116.316406 163.640625 116.027344 163.585938 115.75 163.46875 C 115.472656 163.355469 115.226562 163.191406 115.015625 162.976562 C 114.800781 162.765625 114.636719 162.519531 114.523438 162.242188 C 114.40625 161.964844 114.351562 161.675781 114.351562 161.375 C 114.351562 161.074219 114.40625 160.785156 114.523438 160.507812 C 114.636719 160.226562 114.800781 159.984375 115.015625 159.769531 C 115.226562 159.558594 115.472656 159.394531 115.75 159.277344 C 116.027344 159.164062 116.316406 159.105469 116.617188 159.105469 L 134.757812 159.105469 C 135.058594 159.105469 135.347656 159.164062 135.625 159.277344 C 135.902344 159.394531 136.148438 159.558594 136.363281 159.769531 C 136.574219 159.984375 136.738281 160.226562 136.851562 160.507812 C 136.96875 160.785156 137.027344 161.074219 137.027344 161.375 C 137.027344 161.675781 136.96875 161.964844 136.851562 162.242188 C 136.738281 162.519531 136.574219 162.765625 136.363281 162.976562 C 136.148438 163.191406 135.902344 163.355469 135.625 163.46875 C 135.347656 163.585938 135.058594 163.640625 134.757812 163.640625 Z M 134.757812 163.640625"/><path fill="#6CE5E8" d="M 134.757812 163.640625 C 134.457031 163.640625 134.167969 163.585938 133.890625 163.46875 C 133.613281 163.355469 133.367188 163.191406 133.15625 162.976562 C 132.941406 162.765625 132.777344 162.519531 132.664062 162.242188 C 132.546875 161.964844 132.492188 161.675781 132.492188 161.375 C 132.492188 161.074219 132.546875 160.785156 132.664062 160.507812 C 132.777344 160.226562 132.941406 159.984375 133.15625 159.769531 C 133.367188 159.558594 133.613281 159.394531 133.890625 159.277344 C 134.167969 159.164062 134.457031 159.105469 134.757812 159.105469 C 135.058594 159.105469 135.347656 159.164062 135.625 159.277344 C 135.902344 159.394531 136.148438 159.558594 136.363281 159.769531 C 136.574219 159.984375 136.738281 160.226562 136.851562 160.507812 C 136.96875 160.785156 137.027344 161.074219 137.027344 161.375 C 137.027344 161.675781 136.96875 161.964844 136.851562 162.242188 C 136.738281 162.519531 136.574219 162.765625 136.363281 162.976562 C 136.148438 163.191406 135.902344 163.355469 135.625 163.46875 C 135.347656 163.585938 135.058594 163.640625 134.757812 163.640625 Z M 134.757812 163.640625"/></svg>